<svg xmlns="http://www.w3.org/2000/svg" xmlns:xlink="http://www.w3.org/1999/xlink" width="212" zoomAndPan="magnify" viewBox="0 0 159 47.25" height="63" preserveAspectRatio="xMidYMid meet" version="1.0"><defs><g/><clipPath id="96653d9312"><path d="M 1.242188 7 L 15 7 L 15 33 L 1.242188 33 Z M 1.242188 7 " clip-rule="nonzero"/></clipPath><clipPath id="d3de941ebf"><path d="M 17 13 L 30.773438 13 L 30.773438 38 L 17 38 Z M 17 13 " clip-rule="nonzero"/></clipPath><clipPath id="2fba0e397a"><path d="M 2 27 L 15 27 L 15 45.035156 L 2 45.035156 Z M 2 27 " clip-rule="nonzero"/></clipPath></defs><g clip-path="url(#96653d9312)"><path fill="#09b850" d="M 1.25 32.191406 L 6.890625 26.546875 L 14.4375 19.003906 L 14.4375 7.714844 L 1.25 20.90625 Z M 1.25 32.191406 " fill-opacity="1" fill-rule="nonzero"/></g><g clip-path="url(#d3de941ebf)"><path fill="#09b850" d="M 25.035156 18.832031 L 17.488281 26.378906 L 17.488281 37.664062 L 30.675781 24.476562 L 30.675781 13.1875 Z M 25.035156 18.832031 " fill-opacity="1" fill-rule="nonzero"/></g><g clip-path="url(#2fba0e397a)"><path fill="#09b850" d="M 2.144531 33.089844 L 14.4375 45.378906 L 14.4375 34.09375 L 7.789062 27.445312 Z M 2.144531 33.089844 " fill-opacity="1" fill-rule="nonzero"/></g><path fill="#09b850" d="M 17.488281 0 L 17.488281 11.285156 L 24.136719 17.933594 L 29.777344 12.289062 Z M 17.488281 0 " fill-opacity="1" fill-rule="nonzero"/><g fill="#000000" fill-opacity="1"><g transform="translate(31.698829, 24.352636)"><g><path d="M 7.203125 0.171875 C 9.703125 0.171875 11.84375 -1.234375 12.921875 -3.28125 L 10.53125 -4.515625 C 9.921875 -3.328125 8.6875 -2.53125 7.203125 -2.53125 C 5.09375 -2.53125 3.484375 -4.15625 3.484375 -6.265625 C 3.484375 -8.375 5.09375 -10.015625 7.203125 -10.015625 C 8.6875 -10.015625 9.921875 -9.21875 10.53125 -8.03125 L 12.921875 -9.265625 C 11.84375 -11.3125 9.703125 -12.703125 7.203125 -12.703125 C 3.65625 -12.703125 0.765625 -9.828125 0.765625 -6.265625 C 0.765625 -2.71875 3.65625 0.171875 7.203125 0.171875 Z M 7.203125 0.171875 "/></g></g></g><g fill="#000000" fill-opacity="1"><g transform="translate(45.880805, 24.352636)"><g><path d="M 7.203125 0.171875 C 10.78125 0.171875 13.640625 -2.71875 13.640625 -6.265625 C 13.640625 -9.828125 10.78125 -12.703125 7.203125 -12.703125 C 3.65625 -12.703125 0.765625 -9.828125 0.765625 -6.265625 C 0.765625 -2.71875 3.65625 0.171875 7.203125 0.171875 Z M 7.203125 -2.53125 C 5.09375 -2.53125 3.484375 -4.15625 3.484375 -6.265625 C 3.484375 -8.375 5.09375 -10.015625 7.203125 -10.015625 C 9.34375 -10.015625 10.953125 -8.375 10.953125 -6.265625 C 10.953125 -4.15625 9.34375 -2.53125 7.203125 -2.53125 Z M 7.203125 -2.53125 "/></g></g></g><g fill="#000000" fill-opacity="1"><g transform="translate(61.04411, 24.352636)"><g><path d="M 1.234375 0 L 5.375 0 C 8.8125 0 11.640625 -2.796875 11.640625 -6.265625 C 11.640625 -9.734375 8.8125 -12.53125 5.375 -12.53125 L 1.234375 -12.53125 Z M 3.984375 -2.4375 L 3.984375 -10.09375 L 5.34375 -10.09375 C 7.328125 -10.09375 8.875 -8.4375 8.875 -6.265625 C 8.875 -4.09375 7.328125 -2.4375 5.34375 -2.4375 Z M 3.984375 -2.4375 "/></g></g></g><g fill="#000000" fill-opacity="1"><g transform="translate(74.18211, 24.352636)"><g><path d="M 8.875 -10.109375 L 8.875 -12.53125 L 1.34375 -12.53125 L 1.34375 0 L 8.875 0 L 8.875 -2.421875 L 4.09375 -2.421875 L 4.09375 -5.0625 L 8.1875 -5.0625 L 8.1875 -7.484375 L 4.09375 -7.484375 L 4.09375 -10.109375 Z M 8.875 -10.109375 "/></g></g></g><g fill="#000000" fill-opacity="1"><g transform="translate(84.647536, 24.352636)"><g><path d="M -0.328125 5.015625 L 2.15625 5.015625 L 12.0625 -14.3125 L 9.578125 -14.3125 Z M -0.328125 5.015625 "/></g></g></g><g fill="#000000" fill-opacity="1"><g transform="translate(97.096507, 24.352636)"><g><path d="M 1.484375 -12.09375 L 1.484375 -9.921875 L 8.71875 -6.296875 L 1.484375 -2.640625 L 1.484375 -0.4375 L 10.71875 -5.09375 L 10.71875 -7.453125 Z M 1.484375 -12.09375 "/></g></g></g><g fill="#000000" fill-opacity="1"><g transform="translate(110.025716, 24.352636)"><g><path d="M 14.5625 -12.53125 L 12.328125 -3.84375 L 9.921875 -12.53125 L 7.25 -12.53125 L 4.875 -3.796875 L 2.609375 -12.53125 L -0.296875 -12.53125 L 3.140625 0 L 6.3125 0 L 8.59375 -8.8125 L 10.859375 0 L 14.046875 0 L 17.46875 -12.53125 Z M 14.5625 -12.53125 "/></g></g></g><g fill="#000000" fill-opacity="1"><g transform="translate(127.924237, 24.352636)"><g><path d="M 1.34375 0 L 4.09375 0 L 4.09375 -12.53125 L 1.34375 -12.53125 Z M 1.34375 0 "/></g></g></g><g fill="#000000" fill-opacity="1"><g transform="translate(134.067598, 24.352636)"><g><path d="M 8.96875 -12.53125 L -0.109375 -12.53125 L -0.109375 -10.09375 L 3.078125 -10.09375 L 3.078125 0 L 5.8125 0 L 5.8125 -10.09375 L 8.96875 -10.09375 Z M 8.96875 -12.53125 "/></g></g></g><g fill="#000000" fill-opacity="1"><g transform="translate(143.656084, 24.352636)"><g><path d="M 9.09375 -12.53125 L 9.09375 -7.5 L 3.984375 -7.5 L 3.984375 -12.53125 L 1.234375 -12.53125 L 1.234375 0 L 3.984375 0 L 3.984375 -5.0625 L 9.09375 -5.0625 L 9.09375 0 L 11.828125 0 L 11.828125 -12.53125 Z M 9.09375 -12.53125 "/></g></g></g><g fill="#000000" fill-opacity="1"><g transform="translate(47.40069, 39.746624)"><g><path d="M 5.21875 -9.328125 L 0.953125 -9.328125 L 0.953125 -8.328125 L 4.234375 -8.328125 L 4.234375 -2.359375 C 4.234375 -1.453125 3.65625 -0.875 2.859375 -0.875 C 2.140625 -0.875 1.59375 -1.375 1.53125 -2.140625 L 0.515625 -1.921875 C 0.65625 -0.65625 1.546875 0.125 2.859375 0.125 C 4.28125 0.125 5.21875 -0.796875 5.21875 -2.25 Z M 5.21875 -9.328125 "/></g></g></g><g fill="#000000" fill-opacity="1"><g transform="translate(57.716606, 39.746624)"><g><path d="M 5.546875 0.125 C 8.203125 0.125 10.34375 -2.015625 10.34375 -4.65625 C 10.34375 -7.3125 8.203125 -9.453125 5.546875 -9.453125 C 2.90625 -9.453125 0.765625 -7.3125 0.765625 -4.65625 C 0.765625 -2.015625 2.90625 0.125 5.546875 0.125 Z M 5.546875 -0.875 C 3.453125 -0.875 1.75 -2.546875 1.75 -4.65625 C 1.75 -6.78125 3.453125 -8.453125 5.546875 -8.453125 C 7.671875 -8.453125 9.34375 -6.78125 9.34375 -4.65625 C 9.34375 -2.546875 7.671875 -0.875 5.546875 -0.875 Z M 5.546875 -0.875 "/></g></g></g><g fill="#000000" fill-opacity="1"><g transform="translate(72.986551, 39.746624)"><g><path d="M 7.828125 -9.328125 L 7.828125 -1.65625 L 2.0625 -9.328125 L 1.140625 -9.328125 L 1.140625 0 L 2.125 0 L 2.125 -7.671875 L 7.875 0 L 8.8125 0 L 8.8125 -9.328125 Z M 7.828125 -9.328125 "/></g></g></g><g fill="#000000" fill-opacity="1"><g transform="translate(87.091757, 39.746624)"><g><path d="M 6.765625 0 L 7.84375 0 L 4.484375 -9.328125 L 3.375 -9.328125 L 0 0 L 1.09375 0 L 1.84375 -2.171875 L 6 -2.171875 Z M 2.171875 -3.125 L 3.9375 -8.140625 L 5.671875 -3.125 Z M 2.171875 -3.125 "/></g></g></g><g fill="#000000" fill-opacity="1"><g transform="translate(99.100427, 39.746624)"><g><path d="M 3.484375 0.125 C 5.0625 0.125 6.359375 -0.828125 6.359375 -2.453125 C 6.359375 -5.625 1.8125 -4.84375 1.8125 -7.078125 C 1.8125 -8 2.578125 -8.453125 3.453125 -8.453125 C 4.171875 -8.453125 4.75 -8.15625 5.125 -7.640625 L 5.90625 -8.28125 C 5.390625 -8.9375 4.5 -9.453125 3.421875 -9.453125 C 1.984375 -9.453125 0.828125 -8.515625 0.828125 -7 C 0.828125 -4 5.359375 -4.734375 5.359375 -2.421875 C 5.359375 -1.4375 4.546875 -0.875 3.5 -0.875 C 2.4375 -0.875 1.671875 -1.453125 1.359375 -2.296875 L 0.453125 -1.765625 C 0.9375 -0.625 2.09375 0.125 3.484375 0.125 Z M 3.484375 0.125 "/></g></g></g></svg>